# xmcd CD database file
#
# Track frame offsets:
#	150
#	28627
#	55201
#	80438
#	103840
#	124614
#	153633
#	180403
#	203387
#	222594
#	239535
#	268943
#	294498
#	314729
#
# Disc length: 4459 seconds
#
# Revision: 0
# Processed by: cddbd v1.5.1PL2 Copyright (c) Steve Scherf et al.
# Submitted via: CDex 1.51
#
DISCID=cf11690e
DTITLE=London Elektricity - Power Ballads
DYEAR=1900
DGENRE=Drum and Bass
TTITLE0=Out Of This World
TTITLE1=Power Ballad
TTITLE2=Remember The Future
TTITLE3=The Strangest secret In The World
TTITLE4=I Don't Understand
TTITLE5=Hanging Rock
TTITLE6=Will To Love
TTITLE7=The Mustard Song
TTITLE8=Watching You, Watching Me
TTITLE9=Pussy Galore
TTITLE10=Vapour Trails
TTITLE11=Far From The Shadows
TTITLE12=Rewind (Live at The Jazz Cafe)
TTITLE13=Out Of This world (i-dep edit)
EXTD=
EXTT0=
EXTT1=
EXTT2=
EXTT3=
EXTT4=
EXTT5=
EXTT6=
EXTT7=
EXTT8=
EXTT9=
EXTT10=
EXTT11=
EXTT12=
EXTT13=
PLAYORDER=
